<svg width="20" height="20" viewBox="0 0 29 29" fill="none" xmlns="http://www.w3.org/2000/svg">
<path d="M14.73 28.1201C22.3405 28.1201 28.51 21.9505 28.51 14.3401C28.51 6.72957 22.3405 0.560059 14.73 0.560059C7.1195 0.560059 0.949951 6.72957 0.949951 14.3401C0.949951 21.9505 7.1195 28.1201 14.73 28.1201Z" fill="#091F5A"/>
<path d="M9.68018 9.84014C9.67018 9.27014 9.75011 8.73014 9.99011 8.21014C10.4101 7.32014 11.1201 6.77014 12.0201 6.44014C13.1201 6.04014 14.2501 6.04014 15.4001 6.13014C16.1201 6.19014 16.8101 6.36014 17.4601 6.70014C18.4401 7.22014 19.0202 8.03014 19.1802 9.12014C19.2202 9.36014 19.2201 9.60014 19.2401 9.85014C19.2401 10.7001 19.2401 11.5601 19.2401 12.4101C19.2401 12.4501 19.2702 12.5001 19.2902 12.5401C19.4902 12.7501 19.6301 12.9901 19.6501 13.2901C19.6501 13.3101 19.6501 13.3301 19.6501 13.3501C19.6501 13.9901 19.6501 14.6301 19.6501 15.2701C19.6501 15.2901 19.6501 15.3101 19.6501 15.3301C19.6101 15.7801 19.3601 16.1101 18.9801 16.3001C18.7801 16.4001 18.6901 16.5301 18.6301 16.7201C18.3701 17.5101 17.9902 18.2201 17.5302 18.9101C17.4802 18.9801 17.4301 19.0501 17.3701 19.1101C17.1001 19.4001 17.0202 19.7301 17.0502 20.1201C17.0802 20.5201 17.0201 20.9301 17.0701 21.3301C17.1401 21.9501 17.5002 22.3801 18.0602 22.6601C19.4302 23.3401 20.8002 24.0301 22.1702 24.7201C22.3802 24.8201 22.5701 24.9601 22.7701 25.0801C22.1401 25.5301 21.5301 26.0001 20.8701 26.4101C19.9701 26.9701 18.9901 27.3701 17.9701 27.6401C17.3401 27.8001 16.6902 27.9001 16.0402 28.0301C16.0002 28.0301 15.9701 28.0901 15.9401 28.1301H12.8901C12.8901 28.1301 12.8302 28.0401 12.7902 28.0301C12.0402 27.8601 11.2802 27.7401 10.5402 27.5201C9.21016 27.1401 8.00013 26.5001 6.88013 25.6901C6.61013 25.4901 6.37012 25.2501 6.12012 25.0301C7.60012 24.2001 9.09007 23.3701 10.5701 22.5401C11.1101 22.2301 11.4202 21.7701 11.4202 21.1301C11.4202 20.6501 11.4202 20.1701 11.4202 19.6801C11.4202 19.5801 11.3801 19.4601 11.3201 19.3801C10.6601 18.4801 10.1701 17.4901 9.89014 16.4101C9.87014 16.3301 9.81012 16.2401 9.75012 16.1901C9.46012 15.9601 9.29016 15.6701 9.29016 15.3101C9.27016 14.6801 9.28015 14.0401 9.28015 13.4101C9.28015 13.3901 9.28015 13.3701 9.28015 13.3501C9.28015 13.0101 9.48015 12.7601 9.65015 12.5001C9.67015 12.4601 9.70007 12.4101 9.70007 12.3701C9.70007 11.5301 9.70007 10.7001 9.70007 9.86014L9.68018 9.84014Z" fill="#004BCE"/>
<path d="M19.28 12.5303C19.28 12.5303 19.23 12.4403 19.23 12.4003C19.23 11.5503 19.23 10.6903 19.23 9.84033C19.24 9.92033 19.27 10.0003 19.27 10.0803C19.27 10.9003 19.27 11.7103 19.27 12.5303H19.28Z" fill="#004BCE"/>
<path d="M9.68018 9.84033C9.68018 10.6803 9.68018 11.5103 9.68018 12.3503C9.68018 12.3903 9.65013 12.4403 9.63013 12.4803C9.63013 11.6803 9.63013 10.8803 9.63013 10.0803C9.63013 10.0003 9.66017 9.92033 9.67017 9.84033H9.68018Z" fill="#004BCE"/>
<path d="M19.6501 13.3403C19.6501 13.3403 19.6501 13.3003 19.6501 13.2803C19.6501 13.2903 19.6602 13.3103 19.6702 13.3203C19.6702 13.3203 19.6702 13.3303 19.6602 13.3403H19.6501Z" fill="#004BCE"/>
<path d="M9.27026 13.3301C9.27026 13.3301 9.27026 13.3701 9.27026 13.3901C9.27026 13.3801 9.27025 13.3601 9.26025 13.3501C9.26025 13.3501 9.27027 13.3401 9.28027 13.3301H9.27026Z" fill="#004BCE"/>
<path d="M19.6501 15.3203C19.6501 15.3203 19.6501 15.2803 19.6501 15.2603C19.6501 15.2703 19.6501 15.2903 19.6501 15.3003C19.6501 15.3003 19.6401 15.3103 19.6301 15.3203H19.6501Z" fill="#004BCE"/>
</svg>