<svg width="44" height="88" viewBox="0 0 44 88" fill="none" xmlns="http://www.w3.org/2000/svg">
<g clip-path="url(#clip0_301_284)">
<path
  fill-rule="evenodd"
  clip-rule="evenodd"
  d="M11.4738 32.6602C13.9809 30.6456 16.5722 28.7361 19.2478 26.9316C17.9711 24.1502 17.2265 21.2602 17.0339 18.3387C16.8013 13.1544 17.9235 7.64778 22.0884 3.30123C23.251 1.99797 25.2728 -0.178885 27.4665 0.000132912C29.3164 0.17199 30.3273 2.02662 31.0552 3.09356C36.0289 10.2543 37.0499 17.8017 31.3079 25.9577C29.2108 28.7948 26.5409 31.4001 23.3824 33.6913L25.7884 42.3701C26.0789 42.3262 26.3725 42.2928 26.6678 42.2699C29.6304 41.9588 32.6561 42.3118 35.3212 43.2795C40.9823 45.4277 44.5003 50.8484 43.9342 55.331C43.4288 59.2694 40.9015 61.9905 36.7062 64.375C35.381 65.1443 33.9442 65.8116 32.4199 66.3657L35.3212 76.8347C35.4457 77.7245 35.4863 78.6191 35.4426 79.5128C35.0887 85.0337 29.0233 88.2202 21.5122 87.9767C15.7298 87.719 9.71485 84.468 9.68453 80.3577C9.62387 72.3879 24.8482 72.7674 23.7362 80.057C23.4127 82.2052 21.1988 84.1028 16.4475 84.2245C20.2789 88.7215 32.1268 85.5063 32.9355 79.613C33.0847 78.106 32.8484 76.5923 32.238 75.1447L30.0443 67.0603C29.0319 67.2851 27.9933 67.4456 26.9408 67.54C23.6532 67.7978 20.3259 67.5708 17.1682 66.8733C14.0105 66.1758 11.0907 65.0229 8.59274 63.4871C5.23488 61.3238 2.72512 58.5815 1.30786 55.5271C-0.109392 52.4727 -0.385837 49.2104 0.50545 46.0579C2.02182 40.5943 6.45972 36.706 11.4738 32.6602ZM21.3909 25.836C19.2983 20.444 19.6117 13.6055 24.9998 9.13721C30.388 4.66892 36.3322 10.7412 28.4875 19.6348C26.4704 21.8864 24.0962 23.967 21.4111 25.836H21.3909ZM21.3909 35.1449C20.7136 35.6247 20.016 36.1045 19.3084 36.5771C15.2648 39.334 11.2211 41.962 8.18838 45.886C6.69139 47.7426 5.78061 49.8071 5.51883 51.9371C5.25704 54.0671 5.65048 56.212 6.67201 58.2239C9.0982 63.5873 20.8248 66.9672 29.5692 65.3417L24.9897 48.4281C23.1416 48.7905 21.4811 49.5244 20.2092 50.541C18.9373 51.5576 18.1083 52.8134 17.8224 54.1567C17.6332 55.1992 17.8194 56.2587 18.3638 57.2366C18.9082 58.2144 19.7931 59.0788 20.936 59.7492C21.5142 60.1027 22.1255 60.428 22.7657 60.723C24.0193 61.3102 23.4026 61.7327 22.2299 61.4821C18.3177 60.5512 15.9724 59.0188 14.7189 57.0639C11.0088 51.278 15.5579 44.8334 23.4734 42.7998L21.3909 35.1378V35.1449ZM31.9751 64.7545L27.3856 48.1488C28.9742 48.0999 30.5531 48.3468 31.965 48.8649C33.6412 49.4205 35.1158 50.2405 36.2757 51.2619C37.4357 52.2834 38.2503 53.4793 38.6573 54.7582C39.8704 58.7467 36.9387 63.1505 32.0964 64.7402L31.9751 64.776V64.7545Z"
  fill="#00BFFF"
/>
</g>
<defs>
</defs>
</svg>
